<svg version="1.1" xmlns="http://www.w3.org/2000/svg" xmlns:xlink="http://www.w3.org/1999/xlink" width="64px" height="64px" viewBox="0,0,256,256"><g fill-opacity="0" fill="#dddddd" fill-rule="nonzero" stroke="none" stroke-width="1" stroke-linecap="butt" stroke-linejoin="miter" stroke-miterlimit="10" stroke-dasharray="" stroke-dashoffset="0" font-family="none" font-weight="none" font-size="none" text-anchor="none" style="mix-blend-mode: normal"><path d="M0,256v-256h256v256z" id="bgRectangle"></path></g><g fill="#000000" fill-rule="nonzero" stroke="#000000" stroke-width="8" stroke-linecap="butt" stroke-linejoin="round" stroke-miterlimit="10" stroke-dasharray="" stroke-dashoffset="0" font-family="none" font-weight="none" font-size="none" text-anchor="none" style="mix-blend-mode: normal"><path d="M234.216,196.828l8.112,13.304c-2.056,21.064 -14.328,25.868 -14.328,25.868c-20,0 -41.008,-19.432 -41.012,-19.428c-9.948,-14.788 -16.288,-44.028 -16.288,-44.028l-5.56,1.196c-15.1,22.824 -23.968,51.652 -23.968,51.652c2.612,10 10.828,10.608 10.828,10.608c2.416,-3.824 4,-12 4,-12h4c4,8 4,16 4,16c0,0 -5.02,4.712 -12.452,7.58c0,0 -23.544,-3.58 -27.544,-15.58c7.196,-32.04 15.868,-57.868 15.868,-57.868c-6.824,-2.716 -8.216,-1.696 -8.216,-1.696c-20.612,41.096 -46.828,54.912 -46.828,54.912c-12,0 -28.828,-7.348 -28.828,-7.348c-4,-8 -4,-12 -4,-12c3.996,-7.992 6.59879,-9.90019 6.59602,-9.90399l3.71198,1.31199c-0.672,7.692 2.568,12.596 2.568,12.596c0,0 5.468,2.436 15.12,0c13.632,-9.208 25.012,-45.856 25.012,-45.856l-2.724,-2.8c0,0 -17.724,7.532 -33.904,8.652c0,0 -24.448,-6.328 -42.384,-4c-2.176,0.284 -8.608,9.784 -8.608,9.784l5.564,7.26l-2.956,2.956c-10.596,-4.088 -12,-10 -12,-10c1.988,-10.328 12,-21.6 12,-21.6c29.804,-0.064 43.108,1.296 43.108,1.296c12.912,-5.088 22.836,-11.752 22.836,-11.752l-1.944,-1.944c-16.132,0.652 -31.652,-4.304 -31.652,-4.304c-10.12,-13.628 -21.956,-24.728 -21.956,-24.728l-5.376,0.356l-13.012,8.676l-4,-4l12,-16h16c0,0 16.216,8.956 26.132,20.696c0,0 43.824,12.456 49.868,-24.696l-8,-4c3.64,-9.52 0,-20 0,-20l8,-4c12,-28 32,-56 76,-56c44,0 40,48 40,48c-20.172,18.956 -52,32 -52,32c0,59.74 48.652,47.696 48.652,47.696c12,-20 -4.748,-36.436 -4.748,-36.436l-3.904,0.74l-8.696,6.132l-3.304,-2.132l4,-12l16,-4c0,0 18.844,12.016 19.6,32c0.612,16.132 -5.772,27.152 -5.772,27.152c-8.68,8.868 -37.828,8.848 -37.828,8.848l-4,4c-3.172,17.216 5.632,39.98 5.632,39.98c0,0 7.368,13.888 22.368,16.02c4,0 8,-12 8,-12l-1.512,-13.412zM58.596,198.096c0.00001,0 0.00001,0 0.00002,0.00001z" id="strokeMainSVG"></path></g><g fill="#50bafd" fill-rule="nonzero" stroke="none" stroke-width="1" stroke-linecap="butt" stroke-linejoin="miter" stroke-miterlimit="10" stroke-dasharray="" stroke-dashoffset="0" font-family="none" font-weight="none" font-size="none" text-anchor="none" style="mix-blend-mode: normal"><g transform="scale(4,4)"><path d="M57.622,49.647l0.378,3.353c0,0 -1,3 -2,3c-3.75,-0.533 -5.592,-4.005 -5.592,-4.005c0,0 -2.201,-5.691 -1.408,-9.995l1,-1c0,0 7.287,0.005 9.457,-2.212c0,0 1.596,-2.755 1.443,-6.788c-0.189,-4.996 -4.9,-8 -4.9,-8l-4,1l-1,3l0.826,0.533l2.174,-1.533l0.976,-0.185c0,0 4.187,4.109 1.187,9.109c0,0 -12.163,3.011 -12.163,-11.924c0,0 7.957,-3.261 13,-8c0,0 1,-12 -10,-12c-11,0 -16,7 -19,14l-2,1c0,0 0.91,2.62 0,5l2,1c-1.511,9.288 -12.467,6.174 -12.467,6.174c-2.479,-2.935 -6.533,-5.174 -6.533,-5.174h-4l-3,4l1,1l3.253,-2.169l1.344,-0.089c0,0 2.959,2.775 5.489,6.182c0,0 3.88,1.239 7.913,1.076l0.486,0.486c0,0 -2.481,1.666 -5.709,2.938c0,0 -3.326,-0.34 -10.777,-0.324c0,0 -2.503,2.818 -3,5.4c0,0 0.351,1.478 3,2.5l0.739,-0.739l-1.391,-1.815c0,0 1.608,-2.375 2.152,-2.446c4.484,-0.582 10.596,1 10.596,1c4.045,-0.28 8.476,-2.163 8.476,-2.163l0.681,0.7c0,0 -2.845,9.162 -6.253,11.464c-2.413,0.609 -3.78,0 -3.78,0c0,0 -0.81,-1.226 -0.642,-3.149l-0.928,-0.328c0.002,0 -0.649,0.476 -1.649,2.476c0,0 0,1 1,3c0,0 4.207,1.837 7.207,1.837c0,0 6.554,-3.454 11.707,-13.728c0,0 0.348,-0.255 2.054,0.424c0,0 -2.168,6.457 -3.967,14.467c1,3 6.886,3.895 6.886,3.895c1.858,-0.717 3.113,-1.895 3.113,-1.895c0,0 0,-2 -1,-4h-1c0,0 -0.396,2.044 -1,3c0,0 -2.054,-0.152 -2.707,-2.652c0,0 2.217,-7.207 5.992,-12.913l1.39,-0.299c0,0 1.585,7.31 4.072,11.007c0.001,-0.001 5.253,4.857 10.253,4.857c0,0 3.068,-1.201 3.582,-6.467l-2.028,-3.326zM36.5,25c-1.93,0 -3.5,-1.57 -3.5,-3.5c0,-1.93 1.57,-3.5 3.5,-3.5c1.93,0 3.5,1.57 3.5,3.5c0,1.93 -1.57,3.5 -3.5,3.5z"></path></g></g></svg>